# xmcd
#
# Track frame offsets: 
#        150
#        10719
#        28003
#        41679
#        50800
#        63260
#        75324
#        89687
#        103956
#        120165
#        138016
#        148535
#        168373
#
# Disc length: 2503 seconds
#
# Revision: 0
# Processed by: cddbd v1.5.2PL0 Copyright (c) Steve Scherf et al.
# Submitted via: ExactAudioCopy v0.95b4
#
DISCID=a309c50d
DTITLE=Waldemar Matuska - Niagara
DYEAR=2009
DGENRE=Country
TTITLE0=Namornickej bal
TTITLE1=Niagara
TTITLE2=Rikatado
TTITLE3=Tuhle rundu platim ja
TTITLE4=Zlatokop Tom
TTITLE5=More huci
TTITLE6=Libam te dnes naposledy
TTITLE7=Mym domovem ztichla je putyka
TTITLE8=Chata na vode
TTITLE9=Cesta morem
TTITLE10=Marinak
TTITLE11=Anita
TTITLE12=Az prijde ta chvile
EXTD=
EXTT0=
EXTT1=
EXTT2=
EXTT3=
EXTT4=
EXTT5=
EXTT6=
EXTT7=
EXTT8=
EXTT9=
EXTT10=
EXTT11=
EXTT12=
PLAYORDER=
